<svg width="23" height="211" viewBox="0 0 23 211" fill="none" xmlns="http://www.w3.org/2000/svg">
<path d="M22.0447 32.3315L22.0447 37.5479L4.85154 40.4579L22.0447 43.3989L22.0447 48.6153L0.815426 44.0645L0.815426 36.9055L22.0447 32.3315Z" fill="white"/>
<path d="M5.24238 71.6052L5.24238 80.0953L0.815426 80.0953L0.815426 66.7216L19.8312 66.7216L22.0447 65.6033L22.0447 80.0992L17.6177 80.0992L17.6177 71.6091L13.6435 71.6091L13.6435 76.9686L9.21657 76.988L9.21657 71.6091L5.24238 71.6091L5.24238 71.6052Z" fill="white"/>
<path d="M22.0447 113.096L0.815426 113.096L0.815426 108.638L11.4301 103.391L0.815426 103.391L0.815426 98.5075L19.8312 98.5075L22.0447 97.3853L22.0447 102.996L11.4301 108.182L22.0447 108.182L22.0447 113.096Z" fill="white"/>
<path d="M22.0447 145.033L17.6487 145.033L17.6487 140.606L0.815426 140.606L0.815426 135.691L17.6487 135.691L17.6487 131.295L22.0447 131.295L22.0447 145.033Z" fill="white"/>
<path d="M22.0447 178.576L0.815426 178.576L0.815426 168.449C0.815426 166.173 2.66515 164.355 4.90958 164.355L19.8312 164.355L22.0447 163.232L22.0447 169.269L6.0318 169.269C5.60613 169.269 5.24238 169.633 5.24238 170.09L5.24238 173.669L22.0447 173.669L22.0447 178.576Z" fill="white"/>
<path d="M15.2804 206.085L16.8283 206.085C17.254 206.085 17.6177 205.722 17.6177 205.265L17.6177 202.506C17.6177 202.049 17.254 201.686 16.8283 201.686L14.7967 201.686C14.402 201.686 14.0692 201.96 14.0073 202.324L12.7651 207.784C12.3394 209.665 10.6716 211 8.76382 211L4.91345 211C2.66902 211 0.819298 209.15 0.819298 206.906L0.819298 200.869C0.819298 198.625 2.66902 196.775 4.91345 196.775L7.58356 196.775L7.58356 201.689L6.03567 201.689C5.61 201.689 5.24625 202.053 5.24625 202.51L5.24625 205.269C5.24625 205.722 5.61 206.089 6.03567 206.089L8.06727 206.089C8.46198 206.089 8.79478 205.846 8.85669 205.451L10.0989 199.991C10.5245 198.11 12.1924 196.775 14.1002 196.775L17.9505 196.775C20.195 196.775 22.0447 198.625 22.0447 200.869L22.0447 206.906C22.0447 209.15 20.195 211 17.9505 211L15.2804 211L15.2804 206.085Z" fill="white"/>
<path d="M22.0447 12.4334L22.0447 2.88294L19.8312 4.00515L0.815426 -2.42594e-06L0.815426 5.21637L5.24238 6.00579L5.24238 9.41114L5.24238 10.8894L5.24238 14.4805L3.86476 11.1332L0.815426 11.6749L0.815426 16.8603L22.0447 12.4334ZM9.64224 6.79135L18.9528 8.45919L9.64224 10.0961L9.64224 6.79135Z" fill="white"/>
</svg>
